<svg xmlns="http://www.w3.org/2000/svg" width="24" height="24" fill="none"><defs><clipPath id="a"><path fill="#fff" fill-opacity="0" d="M0 0h24v24H0z"/></clipPath></defs><g clip-path="url(#a)"><rect width="20" height="20" x="2" y="2" fill="#FFF" rx="4"/><rect width="21" height="21" x="1.5" y="1.5" stroke="#FFF" rx="4"/><path fill="#3647E1" fill-rule="evenodd" d="M17.89 7.82a.924.924 0 0 0-1.32.03l-6.54 6.87-2.61-2.73a.924.924 0 0 0-1.32-.04c-.38.36-.39.95-.03 1.33l3.28 3.45c.17.18.42.29.68.29.25 0 .5-.11.68-.29l7.21-7.59c.36-.37.35-.97-.03-1.32Z"/></g></svg>