<svg xmlns="http://www.w3.org/2000/svg" width="24" height="24" fill="none"><defs><clipPath id="a"><path fill="#fff" fill-opacity="0" d="M0 0h24v24H0z"/></clipPath></defs><path fill="none" d="M0 0h24v24H0z"/><g clip-path="url(#a)"><path fill="#1877F2" fill-rule="evenodd" d="M12 1C5.925 1 1 5.926 1 12c0 5.621 4.217 10.258 9.66 10.92v-7.674H8v-3.023h2.66V9.994C10.66 7.408 12.27 6 14.623 6c1.126 0 2.095.082 2.377.12v2.702h-1.632c-1.279 0-1.526.598-1.526 1.473v1.928h3.05l-.397 3.023h-2.653v7.6C19.04 21.97 23 17.447 23 12c0-6.074-4.925-11-11-11Z" clip-rule="evenodd"/></g></svg>