<svg xmlns="http://www.w3.org/2000/svg" width="24" height="24" fill="none"><defs><clipPath id="a"><path fill="#fff" fill-opacity="0" d="M0 0h24v24H0z"/></clipPath></defs><path fill="none" d="M0 0h24v24H0z"/><g clip-path="url(#a)"><path fill="#637282" fill-rule="evenodd" d="m20.09 15.89-1.41-1.42a21.36 21.36 0 0 0 2.1-2.47c-.11-.16-.23-.32-.36-.49-.61-.78-1.29-1.57-2.05-2.3C16.28 7.19 14.1 6 12 6c-.53 0-1.05.07-1.58.21L8.84 4.63C9.87 4.22 10.92 4 12 4c2.72 0 5.33 1.43 7.76 3.78.83.8 1.58 1.65 2.24 2.51.4.52.68.92.84 1.17l.34.54-.34.53c-.16.25-.44.65-.84 1.17-.57.74-1.21 1.48-1.91 2.19ZM17 18.41C15.39 19.42 13.72 20 12 20c-2.73 0-5.34-1.43-7.77-3.79-.83-.8-1.58-1.65-2.24-2.51-.4-.52-.68-.92-.84-1.17L.81 12l.34-.54c.16-.25.44-.65.84-1.17.66-.86 1.41-1.71 2.24-2.51.37-.36.74-.7 1.12-1.01L1.29 2.7 2.7 1.29l20 20-1.41 1.41L17 18.41ZM6.77 8.19c-.38.31-.77.65-1.15 1.02-.76.73-1.44 1.52-2.05 2.3-.13.17-.25.33-.36.49a21.807 21.807 0 0 0 2.41 2.78C7.71 16.8 9.89 18 12 18c1.16 0 2.35-.37 3.54-1.05l-1.51-1.51c-.6.35-1.29.56-2.03.56-2.21 0-4-1.8-4-4 0-.75.2-1.44.55-2.04L6.77 8.19Zm3.29 3.29c-.04.16-.06.34-.06.52a2 2 0 0 0 2 2c.17 0 .35-.03.51-.07l-2.45-2.45Z"/></g></svg>