<svg xmlns="http://www.w3.org/2000/svg" width="16" height="16" fill="none"><defs><clipPath id="a"><path fill="#fff" fill-opacity="0" d="M-.5 0h16v16h-16z"/></clipPath></defs><path fill="none" d="M-.5 0h16v16h-16z"/><g fill="#5AF93F" clip-path="url(#a)"><path d="M13.62 6.18C13.62 2.75 10.86 0 7.44 0 4.01 0 1.25 2.75 1.25 6.18 1.25 9.6 7.44 16 7.44 16s6.18-6.4 6.18-9.82Zm-9.06-.12c0-1.58 1.3-2.88 2.88-2.88 1.57 0 2.87 1.27 2.87 2.88a2.87 2.87 0 0 1-2.87 2.87c-1.58 0-2.88-1.3-2.88-2.87Z"/><path fill-rule="evenodd" d="M13.62 6.18C13.62 2.75 10.86 0 7.44 0 4.01 0 1.25 2.75 1.25 6.18c0 2.72 3.9 7.3 5.5 9.08.42.46.69.74.69.74s.26-.28.68-.74c1.6-1.78 5.5-6.36 5.5-9.08Zm-6.18 8.34q.1-.11.21-.24Q8.79 13 9.73 11.76q1.3-1.71 2.04-3.08.42-.78.63-1.42.22-.63.22-1.08 0-.63-.14-1.22-.1-.41-.27-.8-.19-.45-.45-.84-.28-.44-.66-.81-.37-.38-.81-.66-.39-.26-.83-.45-.4-.16-.81-.26Q8.06 1 7.44 1q-.63 0-1.22.14-.41.1-.81.26-.44.19-.83.45-.44.28-.81.66-.38.37-.66.81-.26.39-.45.84-.17.39-.27.8-.14.59-.14 1.22 0 .45.22 1.08.21.64.63 1.42.73 1.37 2.04 3.08.94 1.24 2.07 2.52.12.13.23.24Zm.8-12.26q-.39-.08-.8-.08-.39 0-.76.07-.38.08-.75.24-.32.13-.6.31-.34.22-.63.52-.3.29-.52.63-.18.29-.32.6-.15.36-.23.75-.07.37-.07.76 0 .38.07.75.08.39.23.75.14.32.32.6.22.34.52.63.29.3.63.52.28.18.6.32.37.15.75.23.37.07.76.07.44 0 .86-.09.33-.08.65-.21.33-.14.63-.34.32-.21.61-.5.27-.28.48-.6.2-.29.34-.63t.22-.7q.08-.39.08-.8 0-.45-.09-.87-.08-.33-.21-.65-.14-.33-.34-.63-.22-.32-.5-.61-.28-.27-.6-.48-.3-.2-.63-.34-.34-.14-.7-.22Zm-3.68 3.8c0-1.58 1.3-2.88 2.88-2.88 1.57 0 2.87 1.27 2.87 2.88a2.87 2.87 0 0 1-2.87 2.87c-1.58 0-2.88-1.3-2.88-2.87Z"/></g></svg>