<svg xmlns="http://www.w3.org/2000/svg" width="125" height="126" fill="none"><path fill="#004364" fill-rule="evenodd" d="m124.99 114.62-3.43-3.44-11.13 11.13 3.44 3.43 11.12-11.12ZM82.43 72.05l-3.44-3.43-11.13 11.13 3.44 3.43 11.13-11.13Z"/><path fill="#285684" fill-rule="evenodd" d="M120.32 112.42 81.19 73.29l-8.65 8.65 39.13 39.13 8.65-8.65Z"/><path fill="#214D79" fill-rule="evenodd" d="m75.46 72.16-4.14-4.14-4.05 4.05 4.14 4.13 4.05-4.04Z"/><path fill="#004364" d="M15.88 16.63c3.46-3.46 7.5-6.14 11.99-7.97C32.22 6.9 36.81 6 41.52 6c4.72 0 9.31.9 13.65 2.66 4.5 1.82 8.54 4.51 12 7.97 3.46 3.46 6.14 7.5 7.97 11.99 1.76 4.35 2.65 8.94 2.65 13.65 0 4.72-.89 9.31-2.65 13.65-1.83 4.5-4.51 8.54-7.97 12-3.47 3.46-7.5 6.14-12 7.97a36.126 36.126 0 0 1-13.64 2.65c-4.71 0-9.31-.89-13.65-2.65-4.5-1.82-8.54-4.51-11.99-7.97-3.46-3.47-6.15-7.5-7.97-12a36.148 36.148 0 0 1-2.66-13.65c0-4.71.89-9.3 2.66-13.65 1.82-4.5 4.5-8.53 7.97-11.99h-.01Zm55.54 55.54c4.04-4.04 7.16-8.74 9.29-13.99a42.237 42.237 0 0 0 3.09-15.91c0-5.49-1.04-10.84-3.09-15.9a42.062 42.062 0 0 0-9.29-13.99c-4.03-4.03-8.74-7.16-13.99-9.28A42.053 42.053 0 0 0 41.52 0c-5.49 0-10.84 1.04-15.9 3.09-5.25 2.13-9.95 5.26-13.99 9.29-4.03 4.03-7.16 8.73-9.28 13.98a42.053 42.053 0 0 0-3.1 15.91c0 5.49 1.04 10.84 3.1 15.9 2.12 5.25 5.25 9.96 9.28 13.99 4.04 4.04 8.74 7.16 13.99 9.29a42.148 42.148 0 0 0 15.9 3.09c5.49 0 10.84-1.04 15.91-3.09 5.24-2.13 9.95-5.26 13.99-9.29v.01Z"/><path fill="#002B49" fill-rule="evenodd" d="m119.43 120.18-3.44-3.44-5.56 5.57 3.44 3.43 5.56-5.56Z"/><path fill="#002B49" d="m67.87 79.74 5.56-5.56 3.44 3.43-4.33 4.33-1.24 1.23-3.43-3.43Z"/><path fill="#153157" fill-rule="evenodd" d="M116 116.75 76.87 77.62l-4.33 4.32 39.13 39.13 4.33-4.32Z"/><path fill="#153157" d="M69.33 74.12c.71-.63 1.41-1.28 2.09-1.96l2.01 2.02-2.02 2.02-2.08-2.08Z"/><path fill="#002B49" d="m11.63 12.38 4.25 4.25a36.103 36.103 0 0 0-7.97 11.99 36.186 36.186 0 0 0-2.66 13.65c0 4.71.9 9.3 2.66 13.65 1.82 4.5 4.51 8.53 7.97 11.99a35.9 35.9 0 0 0 11.99 7.97c4.35 1.76 8.94 2.66 13.65 2.66 4.72 0 9.31-.89 13.65-2.66 4.5-1.82 8.53-4.5 11.99-7.97l4.25 4.25c-.68.68-1.28 1.42-2 2.05-3.54 3.1-7.62 5.47-11.99 7.24a41.965 41.965 0 0 1-15.9 3.1c-5.49 0-10.84-1.04-15.91-3.1a41.942 41.942 0 0 1-13.98-9.28 42.011 42.011 0 0 1-9.29-13.99 42.247 42.247 0 0 1-3.1-15.91c0-5.48 1.05-10.84 3.1-15.9 2.13-5.25 5.26-9.95 9.29-13.99Z"/><path fill="#C3DAE6" d="M15.88 16.63c3.46-3.46 7.5-6.14 11.99-7.97C32.22 6.9 36.81 6 41.52 6c4.72 0 9.31.9 13.65 2.66 4.5 1.82 8.54 4.51 12 7.97 3.46 3.46 6.14 7.5 7.97 11.99 1.76 4.35 2.65 8.94 2.65 13.65 0 4.72-.89 9.31-2.65 13.65-1.83 4.5-4.51 8.54-7.97 12-3.47 3.46-7.5 6.14-12 7.97a36.126 36.126 0 0 1-13.64 2.65c-4.71 0-9.31-.89-13.65-2.65-4.5-1.82-8.54-4.51-11.99-7.97-3.46-3.47-6.15-7.5-7.97-12a36.148 36.148 0 0 1-2.66-13.65c0-4.71.89-9.3 2.66-13.65 1.82-4.5 4.5-8.53 7.97-11.99h-.01Z" opacity=".2"/><path fill="#D6E1E7" d="M27.88 24.56a35.955 35.955 0 0 1-11.98-7.95c3.45-3.45 7.48-6.13 11.97-7.95C32.22 6.9 36.81 6 41.52 6c4.71 0 9.3.9 13.64 2.66 4.49 1.82 8.52 4.5 11.99 7.96a36.08 36.08 0 0 1-11.98 7.94 36.224 36.224 0 0 1-13.65 2.66c-4.71 0-9.3-.89-13.65-2.66h.01Z" opacity=".2"/></svg>