<svg xmlns="http://www.w3.org/2000/svg" width="24" height="24" fill="none"><defs><clipPath id="a"><path fill="#fff" fill-opacity="0" d="M0 0h24v24H0z"/></clipPath></defs><g clip-path="url(#a)"><path fill="#637282" fill-rule="evenodd" d="M2.92 12c.81 1.12 1.91 2.58 3.32 3.81 1.59 1.39 3.5 2.44 5.76 2.44 2.25 0 4.16-1.05 5.75-2.44 1.41-1.23 2.51-2.69 3.32-3.81-.81-1.13-1.91-2.59-3.32-3.82-1.59-1.39-3.5-2.43-5.75-2.43-2.26 0-4.17 1.04-5.76 2.43C4.83 9.41 3.73 10.87 2.92 12Zm2.33-4.94C7 5.53 9.25 4.25 12 4.25c2.74 0 4.99 1.28 6.74 2.81 1.73 1.51 3.02 3.32 3.85 4.48l.02.02c.18.26.18.61 0 .87l-.02.02c-.83 1.16-2.12 2.97-3.85 4.48-1.75 1.53-4 2.82-6.74 2.82-2.75 0-5-1.29-6.75-2.82-1.73-1.51-3.02-3.32-3.85-4.48l-.02-.02a.768.768 0 0 1 0-.87l.02-.02c.83-1.16 2.12-2.97 3.85-4.48ZM12 9.75c-1.25 0-2.25 1-2.25 2.25 0 1.24 1 2.25 2.25 2.25 1.24 0 2.25-1.01 2.25-2.25 0-1.25-1.01-2.25-2.25-2.25ZM8.25 12c0-2.08 1.67-3.75 3.75-3.75 2.07 0 3.75 1.67 3.75 3.75 0 2.07-1.68 3.75-3.75 3.75-2.08 0-3.75-1.68-3.75-3.75Z"/></g></svg>